<?xml version="1.0" encoding="utf-8"?>
<!-- Generator: Adobe Illustrator 19.0.0, SVG Export Plug-In . SVG Version: 6.00 Build 0)  -->
<svg version="1.1" id="Layer_1" xmlns="http://www.w3.org/2000/svg" xmlns:xlink="http://www.w3.org/1999/xlink" x="0px" y="0px"
	 viewBox="0 0 2172 522" style="enable-background:new 0 0 2172 522;" xml:space="preserve">
<style type="text/css">
	.st0{fill-rule:evenodd;clip-rule:evenodd;fill:#A666A9;}
	.st1{fill-rule:evenodd;clip-rule:evenodd;fill:#159748;}
	.st2{fill-rule:evenodd;clip-rule:evenodd;fill:#8CC23F;}
	.st3{fill-rule:evenodd;clip-rule:evenodd;fill:#F0BF26;}
	.st4{fill-rule:evenodd;clip-rule:evenodd;fill:#C82128;}
	.st5{fill-rule:evenodd;clip-rule:evenodd;fill:#9B3993;}
	.st6{fill-rule:evenodd;clip-rule:evenodd;fill:#0099D6;}
	.st7{fill-rule:evenodd;clip-rule:evenodd;fill:#0E7DC1;}
	.st8{fill-rule:evenodd;clip-rule:evenodd;fill:#1A488E;}
	.st9{fill-rule:evenodd;clip-rule:evenodd;fill:#D96A27;}
	.st10{clip-path:url(#SVGID_2_);fill-rule:evenodd;clip-rule:evenodd;fill:#C489BC;}
	.st11{clip-path:url(#SVGID_2_);fill-rule:evenodd;clip-rule:evenodd;fill:#BC4851;}
	.st12{fill-rule:evenodd;clip-rule:evenodd;fill:#C31980;}
	.st13{clip-path:url(#SVGID_4_);fill-rule:evenodd;clip-rule:evenodd;fill:#C489BC;}
	.st14{clip-path:url(#SVGID_4_);fill-rule:evenodd;clip-rule:evenodd;fill:#AF298D;}
	.st15{fill-rule:evenodd;clip-rule:evenodd;fill:#807EB7;}
	.st16{clip-path:url(#SVGID_6_);fill-rule:evenodd;clip-rule:evenodd;fill:#DCEAB6;}
	.st17{clip-path:url(#SVGID_6_);fill-rule:evenodd;clip-rule:evenodd;fill:#CC9741;}
	.st18{fill-rule:evenodd;clip-rule:evenodd;fill:#C3D87E;}
	.st19{clip-path:url(#SVGID_8_);fill-rule:evenodd;clip-rule:evenodd;fill:#E37F80;}
	.st20{clip-path:url(#SVGID_8_);fill-rule:evenodd;clip-rule:evenodd;fill:#B7385C;}
	.st21{clip-path:url(#SVGID_8_);fill-rule:evenodd;clip-rule:evenodd;fill:#D43F27;}
	.st22{clip-path:url(#SVGID_8_);fill-rule:evenodd;clip-rule:evenodd;fill:#C61F4B;}
	.st23{clip-path:url(#SVGID_8_);fill-rule:evenodd;clip-rule:evenodd;fill:#E26C26;}
	.st24{clip-path:url(#SVGID_10_);fill-rule:evenodd;clip-rule:evenodd;fill:#CA506D;}
	.st25{clip-path:url(#SVGID_10_);fill-rule:evenodd;clip-rule:evenodd;fill:#BE1E4F;}
	.st26{fill-rule:evenodd;clip-rule:evenodd;fill:#692B85;}
	.st27{clip-path:url(#SVGID_12_);fill-rule:evenodd;clip-rule:evenodd;fill:#E9AB80;}
	.st28{clip-path:url(#SVGID_12_);fill-rule:evenodd;clip-rule:evenodd;fill:#E79224;}
	.st29{clip-path:url(#SVGID_14_);fill-rule:evenodd;clip-rule:evenodd;fill:#E9AB80;}
	.st30{clip-path:url(#SVGID_14_);fill-rule:evenodd;clip-rule:evenodd;fill:#6A7B34;}
	.st31{clip-path:url(#SVGID_14_);fill-rule:evenodd;clip-rule:evenodd;fill:#E79224;}
	.st32{clip-path:url(#SVGID_16_);fill-rule:evenodd;clip-rule:evenodd;fill:#E37F80;}
	.st33{clip-path:url(#SVGID_16_);fill-rule:evenodd;clip-rule:evenodd;fill:#B7385C;}
	.st34{clip-path:url(#SVGID_16_);fill-rule:evenodd;clip-rule:evenodd;fill:#C61F4B;}
	.st35{clip-path:url(#SVGID_18_);fill-rule:evenodd;clip-rule:evenodd;fill:#DCEAB6;}
	.st36{clip-path:url(#SVGID_18_);fill-rule:evenodd;clip-rule:evenodd;fill:#64BB52;}
	.st37{clip-path:url(#SVGID_20_);fill-rule:evenodd;clip-rule:evenodd;fill:#D87FB3;}
	.st38{clip-path:url(#SVGID_20_);fill-rule:evenodd;clip-rule:evenodd;fill:#952687;}
	.st39{clip-path:url(#SVGID_22_);fill-rule:evenodd;clip-rule:evenodd;fill:#BEDA87;}
	.st40{clip-path:url(#SVGID_22_);fill-rule:evenodd;clip-rule:evenodd;fill:#8CC23F;}
	.st41{display:none;}
	.st42{font-family:'SharpSansNo1-Semibold';}
	.st43{font-size:370px;}
	.st44{letter-spacing:7;}
</style>
<g>
	<path class="st0" d="M409.9,270c31.2,0,62.5,0,93.9-0.1c7.5,0,13.6,6.7,13.4,14.9c-0.3,19.7-1,39.3-1.9,58.9
		c-0.4,8.3-6.8,15.3-14.2,15.5l-11.3,0.3l-30.9,24.1l9.3-23.8l-59.2,1.4c-7.3,0.2-13.3-6.8-13.2-15.3c0.2-20.2,0.4-40.4,0.4-60.7
		C396.3,276.8,402.5,270,409.9,270"/>
	<path class="st1" d="M252.4,378.2c18.3,0.5,36.6,1,54.9,1.3c4.3,0,8,4.3,8.2,9.4c0.5,12.2,1,24.3,1.7,36.4c0.3,5-2.8,9.1-7,9
		c-17.5-0.5-35-1.1-52.5-1.8c-4.1-0.2-8.4-4.4-9.1-9.5c-1.7-11.9-2.7-23.9-3.7-35.9C244.7,382.2,248,378.1,252.4,378.2"/>
	<path class="st2" d="M134.7,71.3c11.2-2.1,22.4-4.1,33.6-6c2.6-0.4-4.8,1.5-11.8,6.2c-12.2,8.2-19.4,18-24.6,27.1
		c-2.1,3.7-6,7.2-9.3,7.5c-14,1.5-28,3.2-42,4.7c-3.3,0.4-4.5-2.5-2-5.9c6.6-8.9,15.7-18.4,30.7-26.2
		C118.1,74.2,132,71.8,134.7,71.3"/>
	<path class="st3" d="M185.1,62.6c11.2-1.6,22.4-3.1,33.6-4.5c2.6-0.4-2.3,2-7.1,6.6c-9,8.7-13.9,18.7-17.6,28.1
		c-1.5,3.9-5.1,7.3-8.4,7.5c-14,1.1-28,2.3-41.9,3.6c-3.4,0.3-4.9-2.7-2.9-6.4c5-9.2,11.9-19.1,23.6-27.4
		C171,65.6,182.5,63,185.1,62.6"/>
	<path class="st4" d="M286.1,52c11.2-0.7,22.4-1.2,33.6-1.6c2.7-0.1,3.1,3.1,2.2,7.2c-2,9.7-2.8,19.4-3.6,29.1
		c-0.3,4.1-3.3,7.5-6.6,7.6c-14,0.2-28,0.7-42,1.2c-3.4,0.1-5.6-3.1-4.7-7.1c2-9.6,4.5-19.5,9.5-28.8C277,55.3,283.5,52.2,286.1,52"
		/>
	<path class="st5" d="M336.7,50c11.2-0.2,22.3-0.2,33.6,0c2.6,0,6.1,3.3,6.9,7.4c1.8,9.7,2.7,19.4,3.4,29.2c0.3,4.1-2.3,7.4-5.7,7.4
		c-14-0.2-28-0.2-41.9,0c-3.3,0-5.9-3.3-5.7-7.3c0.6-9.7,1.1-19.4,2.5-29.1C330.4,53.4,334,50,336.7,50"/>
	<path class="st6" d="M437.6,52.9c11.2,0.8,22.4,1.9,33.6,2.9c2.7,0.3,11.5,3.2,16.1,7.8c8.9,8.9,13.8,18.9,17.5,28.3
		c1.5,3.9-0.5,6.9-3.8,6.7c-14-0.9-28-1.6-42-2.3c-3.3-0.2-6.4-3.6-7.4-7.6c-2.4-9.6-5.5-19.5-11.5-28.8
		C437.3,55.5,435,52.7,437.6,52.9"/>
	<path class="st7" d="M503.3,68.5c9.4,0.9,18.7,2,28,3.1c2.3,0.3,6.9,2.7,9.6,5.7c5.8,6.6,10,13.6,13.3,20.6c1.3,2.8,0,5-2.4,4.8
		c-10.4-0.9-20.8-1.8-31.2-2.6c-2.5-0.2-5.1-2.8-6.2-5.7c-2.6-7.1-6-14.1-10.7-21C501.7,70.4,501.1,68.3,503.3,68.5"/>
	<path class="st8" d="M538.6,65.1c11.2,1.8,22.4,3.9,33.6,6.1c2.7,0.5,16.6,3,25.6,7.6c15.4,7.8,24.8,17.2,31.5,26.2
		c2.6,3.4,1.3,6.3-2.1,5.9c-14-1.7-28-3.4-41.9-4.8c-3.3-0.4-7.2-3.9-9.3-7.6c-5.4-9.2-12.9-18.9-25.5-27.2
		C543.3,66.5,535.9,64.6,538.6,65.1"/>
	<path class="st9" d="M190,110.6c23.4-1.5,46.8-2.8,70.2-3.8c5.5-0.2,9.4,5.1,8.9,11.7c-1.3,15.9-2.2,31.8-2.9,47.6
		c-0.3,6.7-5.3,12.1-11,12.3l-48.4,1.4l8.4,17.1l-23.9-16.7l-9.4,0.3c-5.8,0.2-10.2-4.9-9.7-11.4c1.3-15.3,2.9-30.7,5.2-46.1
		C178.5,116.4,184.4,110.9,190,110.6"/>
	<g>
		<defs>
			<path id="SVGID_1_" d="M298,116.6c-10.8,0.2-21.6,0.6-32.3,0.9c-2.6,0.1-4.9,2.6-5.2,5.7c-0.6,7.2-1.1,14.4-1.6,21.6
				c-0.2,3.1,1.8,5.4,4.5,5.4c10.9-0.2,21.9-0.6,32.9-0.7c2.6-0.1,4.8-2.6,4.9-5.6c0.4-7.2,0.7-14.5,1.1-21.8
				C302.5,118.9,300.6,116.6,298,116.6L298,116.6"/>
		</defs>
		<clipPath id="SVGID_2_">
			<use xlink:href="#SVGID_1_"  style="overflow:visible;"/>
		</clipPath>
		<rect x="123.3" y="-19.1" class="st10" width="314.7" height="304.8"/>
		<path class="st11" d="M190,110.6c23.4-1.5,46.8-2.8,70.2-3.8c5.5-0.2,9.4,5.1,8.9,11.7c-1.3,15.9-2.2,31.8-2.9,47.6
			c-0.3,6.7-5.3,12.1-11,12.3l-48.4,1.4l8.4,17.1l-23.9-16.7l-9.4,0.3c-5.8,0.2-10.2-4.9-9.7-11.4c1.3-15.3,2.9-30.7,5.2-46.1
			C178.5,116.4,184.4,110.9,190,110.6"/>
	</g>
	<path class="st12" d="M342.8,137.9c19.4-0.1,38.7,0.1,58.2,0.3c4.7,0.1,8.5,4.6,8.6,10c0.2,12.9,0.5,25.9,0.7,38.8
		c0.1,5.4-3.7,9.8-8.5,9.7l-22-0.1l-7.6,12.6l-6.5-12.7l-23.4-0.1c-4.8,0-8.6-4.4-8.5-9.8c0.1-12.9,0.3-25.9,0.5-38.9
		C334.3,142.4,338.2,137.9,342.8,137.9"/>
	<g>
		<defs>
			<path id="SVGID_3_" d="M390.7,118.7c0.1,17.8,0,35.6,0.2,53.4c0.1,7.5,5.5,13.7,12,13.7c27.2,0.4,54.5,0.8,81.7,1.4
				c6.4,0.1,11.5-5.7,11.2-13c-0.9-17.4-1.7-34.8-3.1-52.3c-0.6-7.3-6.7-13.6-12.9-13.8c-26.1-1.2-52.1-2-78.2-2.7h-0.2
				C395.4,105.4,390.6,111.3,390.7,118.7"/>
		</defs>
		<clipPath id="SVGID_4_">
			<use xlink:href="#SVGID_3_"  style="overflow:visible;"/>
		</clipPath>
		<rect x="255" y="-30.2" class="st13" width="376.4" height="353.1"/>
		<path class="st14" d="M342.8,137.9c19.4-0.1,38.7,0.1,58.2,0.3c4.7,0.1,8.5,4.6,8.6,10c0.2,12.9,0.5,25.9,0.7,38.8
			c0.1,5.4-3.7,9.8-8.5,9.7l-22-0.1l-7.6,12.6l-6.5-12.7l-23.4-0.1c-4.8,0-8.6-4.4-8.5-9.8c0.1-12.9,0.3-25.9,0.5-38.9
			C334.3,142.4,338.2,137.9,342.8,137.9"/>
	</g>
	<path class="st15" d="M516.6,110.3c16.6,1.1,33.2,2.5,49.8,3.8c3.9,0.3,8.3,4.2,9,8.7c1.7,10.6,2.9,21.3,4,32
		c0.4,4.4-2.5,7.9-6.6,7.7l-6.7-0.3L551.5,174l2.2-12.4l-32.4-1.7c-4.1-0.2-7.7-4.1-8-8.7c-0.7-11-1.4-22-2.7-33
		C510.2,113.6,512.7,110,516.6,110.3"/>
	<path class="st7" d="M589.7,126.3c10.8,1,21.5,2,32.3,3.1c2.6,0.3,5.2,2.7,5.7,5.5c1.1,6.7,2.1,13.3,3.1,19.9
		c0.4,2.8-1.4,4.8-4.1,4.6c-11-0.8-22-1.7-33-2.4c-2.6-0.2-5-2.6-5.3-5.5c-0.7-6.8-1.6-13.6-2.5-20.5
		C585.5,128.2,587.2,126.1,589.7,126.3"/>
	<path class="st2" d="M65.2,170.3c14.7-1,29.4-2,44.2-2.9c3.5-0.2,6,2.7,5.6,6.5c-0.9,9-1.7,18.1-2.3,27.2c-0.3,3.8-3.3,7-6.9,7.2
		c-14.9,0.5-29.9,1.1-44.8,1.7c-3.6,0.2-6.2-2.7-5.9-6.3c0.8-8.8,1.7-17.5,2.9-26.2C58.4,173.7,61.7,170.6,65.2,170.3"/>
	<g>
		<defs>
			<path id="SVGID_5_" d="M237.9,161.6c-24.6,0.7-49,1.7-73.5,2.8c-5.8,0.3-11.3,5.8-11.8,12.2c-1.2,15.4-2,30.9-2.6,46.3
				c-0.3,6.4,4.5,11.6,10.5,11.6c25-0.3,50-0.6,75-0.8c6-0.1,10.9-5.6,11.1-12.3c0.3-16,0.7-32,1.4-48c0.3-6.5-4-11.8-9.8-11.8
				C238.1,161.6,238,161.6,237.9,161.6"/>
		</defs>
		<clipPath id="SVGID_6_">
			<use xlink:href="#SVGID_5_"  style="overflow:visible;"/>
		</clipPath>
		<rect x="14.3" y="26" class="st16" width="369.2" height="344.1"/>
		<path class="st17" d="M190,110.6c23.4-1.5,46.8-2.8,70.2-3.8c5.5-0.2,9.4,5.1,8.9,11.7c-1.3,15.9-2.2,31.8-2.9,47.6
			c-0.3,6.7-5.3,12.1-11,12.3l-48.4,1.4l8.4,17.1l-23.9-16.7l-9.4,0.3c-5.8,0.2-10.2-4.9-9.7-11.4c1.3-15.3,2.9-30.7,5.2-46.1
			C178.5,116.4,184.4,110.9,190,110.6"/>
	</g>
	<path class="st6" d="M596.4,167.4c14.7,0.9,29.4,1.9,44.2,3c3.5,0.3,6.8,3.4,7.3,7.1c1.1,8.7,2,17.4,2.7,26.2
		c0.3,3.6-2.5,6.5-6.1,6.3c-15-0.6-29.9-1.2-44.8-1.7c-3.5-0.1-6.6-3.4-6.9-7.1c-0.6-9.1-1.3-18.2-2.1-27.3
		C590.3,170.1,592.9,167.2,596.4,167.4"/>
	<path class="st18" d="M60.2,219.9c15-0.5,29.9-1,44.9-1.4c3.5-0.1,6.3,2.9,6.1,6.6c-0.4,9.1-0.5,18.1-0.7,27.2
		c-0.1,3.8-3.1,6.9-6.6,6.9l-29.3,0.2l0.8,7.9l-11.2-7.9l-5.4,0c-3.6,0-6.4-2.9-6.3-6.5c0.1-8.7,0.4-17.5,0.8-26.2
		C53.6,223,56.6,219.9,60.2,219.9"/>
	<path class="st3" d="M196.2,223.4c40-0.5,79.9-0.9,119.8-1.1c9.6,0,17.3,8.8,17.3,19.7c-0.1,25.9,0,51.8,0.1,77.7
		c0,10.8-7.6,19.8-17.1,19.7c-39.6-0.4-79.2-1.2-118.9-2.2c-9.5-0.2-17.8-9.1-18.1-19.6c-0.9-24.9-1.1-50-0.9-75
		C178.5,232.2,186.7,223.5,196.2,223.4"/>
	<g>
		<defs>
			<path id="SVGID_7_" d="M284,169c-11,0.2-20.4,10.7-20.7,23.2c-0.8,29.9-1.1,59.8-1,89.8c0,12.6,9.4,22.9,20.5,23
				c46.6,0.3,93.1,0.4,139.7,0.2c11.1,0,20.4-10.4,20.5-23c0.1-30-0.1-60-0.8-90c-0.3-12.5-9.6-23.1-20.5-23.2
				c-23.7-0.3-47.3-0.4-71-0.4C328.4,168.6,306.2,168.8,284,169"/>
		</defs>
		<clipPath id="SVGID_8_">
			<use xlink:href="#SVGID_7_"  style="overflow:visible;"/>
		</clipPath>
		<rect x="126.6" y="33" class="st19" width="452" height="407.9"/>
		<path class="st20" d="M409.9,270c31.2,0,62.5,0,93.9-0.1c7.5,0,13.6,6.7,13.4,14.9c-0.3,19.7-1,39.3-1.9,58.9
			c-0.4,8.3-6.8,15.3-14.2,15.5l-11.3,0.3l-30.9,24.1l9.3-23.8l-59.2,1.4c-7.3,0.2-13.3-6.8-13.2-15.3c0.2-20.2,0.4-40.4,0.4-60.7
			C396.3,276.8,402.5,270,409.9,270"/>
		<path class="st21" d="M190,110.6c23.4-1.5,46.8-2.8,70.2-3.8c5.5-0.2,9.4,5.1,8.9,11.7c-1.3,15.9-2.2,31.8-2.9,47.6
			c-0.3,6.7-5.3,12.1-11,12.3l-48.4,1.4l8.4,17.1l-23.9-16.7l-9.4,0.3c-5.8,0.2-10.2-4.9-9.7-11.4c1.3-15.3,2.9-30.7,5.2-46.1
			C178.5,116.4,184.4,110.9,190,110.6"/>
		<path class="st22" d="M342.8,137.9c19.4-0.1,38.7,0.1,58.2,0.3c4.7,0.1,8.5,4.6,8.6,10c0.2,12.9,0.5,25.9,0.7,38.8
			c0.1,5.4-3.7,9.8-8.5,9.7l-22-0.1l-7.6,12.6l-6.5-12.7l-23.4-0.1c-4.8,0-8.6-4.4-8.5-9.8c0.1-12.9,0.3-25.9,0.5-38.9
			C334.3,142.4,338.2,137.9,342.8,137.9"/>
		<path class="st23" d="M196.2,223.4c40-0.5,79.9-0.9,119.8-1.1c9.6,0,17.3,8.8,17.3,19.7c-0.1,25.9,0,51.8,0.1,77.7
			c0,10.8-7.6,19.8-17.1,19.7c-39.6-0.4-79.2-1.2-118.9-2.2c-9.5-0.2-17.8-9.1-18.1-19.6c-0.9-24.9-1.1-50-0.9-75
			C178.5,232.2,186.7,223.5,196.2,223.4"/>
	</g>
	<g>
		<defs>
			<path id="SVGID_9_" d="M390.9,172.1c0.1,7.5,5.5,13.7,12,13.7c12.8,0.2,25.7,0.4,38.5,0.6c-2.5-9.8-10.5-17.3-19.7-17.4
				c-10.3-0.1-20.5-0.2-30.8-0.3L390.9,172.1"/>
		</defs>
		<clipPath id="SVGID_10_">
			<use xlink:href="#SVGID_9_"  style="overflow:visible;"/>
		</clipPath>
		<rect x="255.2" y="33.1" class="st24" width="321.8" height="288.9"/>
		<path class="st25" d="M342.8,137.9c19.4-0.1,38.7,0.1,58.2,0.3c4.7,0.1,8.5,4.6,8.6,10c0.2,12.9,0.5,25.9,0.7,38.8
			c0.1,5.4-3.7,9.8-8.5,9.7l-22-0.1l-7.6,12.6l-6.5-12.7l-23.4-0.1c-4.8,0-8.6-4.4-8.5-9.8c0.1-12.9,0.3-25.9,0.5-38.9
			C334.3,142.4,338.2,137.9,342.8,137.9"/>
	</g>
	<path class="st26" d="M504.8,184.1c19.8,0.6,39.5,1.3,59.3,2.1c4.7,0.2,8.9,4.5,9.3,9.7c0.8,12.3,1.3,24.5,1.7,36.8
		c0.2,5.1-3.7,9.3-8.5,9.2c-20-0.3-40-0.5-60-0.6c-4.8,0-8.7-4.4-8.8-9.7c-0.3-12.7-0.6-25.3-1.1-38
		C496.4,188.3,500,183.9,504.8,184.1"/>
	<path class="st15" d="M600.3,218.5c14.9,0.4,29.9,0.8,44.9,1.3c3.6,0.1,6.7,3.2,6.9,6.8c0.4,8.7,0.7,17.5,0.9,26.2
		c0.1,3.6-2.8,6.6-6.4,6.6c-15.1-0.1-30.1,0-45.1-0.1c-3.5,0-6.5-3.1-6.6-6.9c-0.1-9.1-0.3-18.2-0.7-27.3
		C594,221.4,596.8,218.4,600.3,218.5"/>
	<g>
		<defs>
			<path id="SVGID_11_" d="M190.2,258.9c-15,0-30,0.1-45.1,0.1c-3.6,0-6.6,3.2-6.6,7.1c0,9.2,0.2,18.4,0.4,27.5
				c0.1,3.9,3.1,7.1,6.7,7.2c14.9,0.3,30,0.5,44.9,0.7c3.6,0,6.5-3.2,6.4-7.1c-0.2-9.4-0.3-18.8-0.3-28.3
				C196.7,262.2,193.8,258.9,190.2,258.9L190.2,258.9"/>
		</defs>
		<clipPath id="SVGID_12_">
			<use xlink:href="#SVGID_11_"  style="overflow:visible;"/>
		</clipPath>
		<rect x="2.9" y="123.3" class="st27" width="329.7" height="313.9"/>
		<path class="st28" d="M196.2,223.4c40-0.5,79.9-0.9,119.8-1.1c9.6,0,17.3,8.8,17.3,19.7c-0.1,25.9,0,51.8,0.1,77.7
			c0,10.8-7.6,19.8-17.1,19.7c-39.6-0.4-79.2-1.2-118.9-2.2c-9.5-0.2-17.8-9.1-18.1-19.6c-0.9-24.9-1.1-50-0.9-75
			C178.5,232.2,186.7,223.5,196.2,223.4"/>
	</g>
	<path class="st4" d="M533.6,269.8c15,0,30.1-0.1,45.1-0.1c3.6,0,6.4,3.1,6.4,6.9c-0.1,9.1-0.4,18.3-0.7,27.4
		c-0.1,3.8-3.1,7-6.7,7.1c-15,0.4-29.9,0.7-44.9,1.1c-3.6,0.1-6.4-3.1-6.2-7c0.2-9.4,0.5-18.8,0.5-28.2
		C527,273,530,269.8,533.6,269.8"/>
	<path class="st5" d="M599.7,279.8c11.2,0,22.5-0.2,33.8-0.4c2.7,0,4.8,2.2,4.7,5c-0.2,6.6-0.5,13.2-0.8,19.8
		c-0.1,2.8-2.4,5.1-5.1,5.2c-11.3,0.4-22.5,0.8-33.7,1.1c-2.7,0.1-4.8-2.1-4.7-5c0.3-6.8,0.5-13.6,0.7-20.3
		C594.7,282.2,597,279.9,599.7,279.8"/>
	<path class="st1" d="M60.9,318.8c14.9,0.6,29.8,1.1,44.8,1.6c3.5,0.1,6.7,3.3,6.9,7.1c0.7,9.1,1.4,18.2,2.3,27.2
		c0.4,3.8-2.1,6.7-5.6,6.5c-14.7-0.8-29.4-1.9-44.2-2.9c-3.5-0.2-6.8-3.3-7.3-7c-1.1-8.7-2.1-17.4-2.9-26.1
		C54.7,321.6,57.3,318.7,60.9,318.8"/>
	<path class="st2" d="M150.4,315.3c22.4,0.5,44.8,1,67.2,1.4c5.3,0.1,9.9,5,10.1,11.1c0.5,14.3,1.2,28.6,2.1,42.9
		c0.4,6-3.5,10.8-8.7,10.5l-43.8-2.1l5.5,16.8l-19.3-17.4l-8.2-0.4c-5.2-0.2-10.2-5.3-10.8-11c-1.4-13.8-2.5-27.6-3.3-41.4
		C140.8,319.8,145,315.2,150.4,315.3"/>
	<g>
		<defs>
			<path id="SVGID_13_" d="M282,333.3c0.3,15.1,0.9,30.1,1.5,45.2c0.3,6.3,4.9,11.6,10.3,11.6c22.7,0.5,45.4,0.7,68.1,0.7
				c5.4,0,9.9-5.2,9.9-11.5c0-15.1,0-30.3,0-45.5c0-6.4-4.5-11.6-10.1-11.6c-23.3-0.1-46.6-0.1-69.9-0.3h-0.1
				C286.3,321.9,281.9,327,282,333.3"/>
		</defs>
		<clipPath id="SVGID_14_">
			<use xlink:href="#SVGID_13_"  style="overflow:visible;"/>
		</clipPath>
		<rect x="146.4" y="186.3" class="st29" width="361.1" height="340.3"/>
		<path class="st30" d="M252.4,378.2c18.3,0.5,36.6,1,54.9,1.3c4.3,0,8,4.3,8.2,9.4c0.5,12.2,1,24.3,1.7,36.4c0.3,5-2.8,9.1-7,9
			c-17.5-0.5-35-1.1-52.5-1.8c-4.1-0.2-8.4-4.4-9.1-9.5c-1.7-11.9-2.7-23.9-3.7-35.9C244.7,382.2,248,378.1,252.4,378.2"/>
		<path class="st31" d="M196.2,223.4c40-0.5,79.9-0.9,119.8-1.1c9.6,0,17.3,8.8,17.3,19.7c-0.1,25.9,0,51.8,0.1,77.7
			c0,10.8-7.6,19.8-17.1,19.7c-39.6-0.4-79.2-1.2-118.9-2.2c-9.5-0.2-17.8-9.1-18.1-19.6c-0.9-24.9-1.1-50-0.9-75
			C178.5,232.2,186.7,223.5,196.2,223.4"/>
	</g>
	<path class="st5" d="M544.4,321.9c11.4-0.3,22.8-0.7,34.2-1c2.7-0.1,4.8,2.3,4.7,5.1c-0.4,7-0.9,14-1.5,20.9
		c-0.2,3-2.6,5.5-5.3,5.6c-11.3,0.6-22.6,1.1-33.8,1.6c-2.8,0.1-4.8-2.2-4.6-5.2c0.4-7.1,0.9-14.3,1.2-21.5
		C539.4,324.5,541.7,322,544.4,321.9"/>
	<path class="st18" d="M78.4,369.2c11.2,0.8,22.5,1.6,33.8,2.3c2.7,0.2,5.2,2.7,5.6,5.6c1,7,2.1,14,3.4,20.9c0.6,2.9-1,5.1-3.6,4.9
		c-11.1-0.9-22.1-2-33.1-3.1c-2.6-0.3-5.5-2.8-6.1-5.6c-1.5-6.8-2.8-13.5-4-20.3C73.9,371.2,75.7,369,78.4,369.2"/>
	<path class="st3" d="M397,379.8c14.6-0.2,29.3-0.4,44-0.7c3.5-0.1,6.2,3.2,6.1,7.2c-0.4,9.7-0.7,19.4-1.2,28.9
		c-0.2,4-3.4,7.4-6.8,7.5c-14.2,0.5-28.4,0.7-42.6,1c-3.4,0-6-3.3-6-7.3c0.1-9.7,0.1-19.4,0.2-29.1
		C390.7,383.2,393.6,379.9,397,379.8"/>
	<path class="st12" d="M474.9,388.7c10.9-0.4,21.9-0.9,33-1.4c2.7-0.1,4.6,2.2,4.3,5.2c-0.6,7.2-1.1,14.2-2,21.3
		c-0.4,3-2.9,5.6-5.5,5.7c-10.7,0.7-21.4,1.2-32.1,1.8c-2.6,0.1-4.3-2.2-4-5.2c0.7-7.2,1-14.4,1.4-21.7
		C470.1,391.4,472.3,388.8,474.9,388.7"/>
	<g>
		<defs>
			<path id="SVGID_15_" d="M550.7,364.2c-14.7,0.7-29.4,1.4-44.1,2c-3.6,0.1-6.6,3.5-6.9,7.5c-0.6,9.5-1.2,19-1.8,28.4
				c-0.3,4,2.2,7.1,5.6,6.9c14.4-0.8,28.7-1.8,43-2.8c3.5-0.3,6.8-3.7,7.2-7.5c1-9.2,1.8-18.5,2.7-27.7c0.3-3.8-2.1-6.7-5.5-6.7
				C550.9,364.2,550.8,364.2,550.7,364.2"/>
		</defs>
		<clipPath id="SVGID_16_">
			<use xlink:href="#SVGID_15_"  style="overflow:visible;"/>
		</clipPath>
		<rect x="362.3" y="228.6" class="st32" width="329.8" height="316.1"/>
		<path class="st33" d="M409.9,270c31.2,0,62.5,0,93.9-0.1c7.5,0,13.6,6.7,13.4,14.9c-0.3,19.7-1,39.3-1.9,58.9
			c-0.4,8.3-6.8,15.3-14.2,15.5l-11.3,0.3l-30.9,24.1l9.3-23.8l-59.2,1.4c-7.3,0.2-13.3-6.8-13.2-15.3c0.2-20.2,0.4-40.4,0.4-60.7
			C396.3,276.8,402.5,270,409.9,270"/>
		<path class="st34" d="M474.9,388.7c10.9-0.4,21.9-0.9,33-1.4c2.7-0.1,4.6,2.2,4.3,5.2c-0.6,7.2-1.1,14.2-2,21.3
			c-0.4,3-2.9,5.6-5.5,5.7c-10.7,0.7-21.4,1.2-32.1,1.8c-2.6,0.1-4.3-2.2-4-5.2c0.7-7.2,1-14.4,1.4-21.7
			C470.1,391.4,472.3,388.8,474.9,388.7"/>
	</g>
	<path class="st12" d="M606.6,381.1l17.7-1.6l-5.6-8.2l14.6,7.4l6-0.6c2.6-0.2,4.5,1.8,4,4.5c-1.1,6.6-2.3,13.1-4.1,19.6
		c-0.8,2.8-3.8,5.2-6.4,5.5c-10.7,1.2-21.3,2.5-32,3.6c-2.5,0.3-3.8-1.9-3.2-4.7c1.5-6.7,2.5-13.5,3.4-20.2
		C601.5,383.8,603.9,381.4,606.6,381.1"/>
	<path class="st2" d="M80.6,417.9c14,1.6,27.9,3.2,42,4.6c3.3,0.3,7.2,3.8,9.3,7.4c5.2,9.2,12.4,19,24.5,27.2c7,4.7,14.6,6.6,12,6.1
		c-11.2-1.8-22.4-3.8-33.6-5.9c-2.7-0.5-16.6-2.7-25.5-7.4c-14.8-7.8-24-17.2-30.5-26.1C76,420.3,77.2,417.5,80.6,417.9"/>
	<path class="st1" d="M148.3,438.1c8.9,0.9,18,1.8,27,2.7c2.1,0.2,4.9,2.6,6.5,5.1c4,6.3,9.1,12.9,17.2,18.6
		c4.5,3.2,8.7,4.5,6.9,4.2c-7.5-1-15-2-22.4-3.1c-1.8-0.3-9.8-1.9-15.3-5.1c-9.6-5.5-15.9-12-20.8-18.2
		C145.6,440,146.1,437.9,148.3,438.1"/>
	<g>
		<defs>
			<path id="SVGID_17_" d="M194,424.2c3.6,12.6,8.2,25.9,18.1,37.5c5.2,6.2,17.3,9.9,20.9,10.2c14.9,1.6,29.8,3,44.7,4.1
				c3.6,0.3,1.2-3.5-1.4-9.3c-5.4-12.5-7.7-25.6-9.6-38.4c-0.8-5.4-4.9-9.9-9.5-10.1c-19.1-0.8-38-1.8-57-3c-0.1,0-0.2,0-0.4,0
				C195.5,415.1,192.6,419.1,194,424.2"/>
		</defs>
		<clipPath id="SVGID_18_">
			<use xlink:href="#SVGID_17_"  style="overflow:visible;"/>
		</clipPath>
		<rect x="58" y="279.5" class="st35" width="357.1" height="332.1"/>
		<path class="st36" d="M252.4,378.2c18.3,0.5,36.6,1,54.9,1.3c4.3,0,8,4.3,8.2,9.4c0.5,12.2,1,24.3,1.7,36.4c0.3,5-2.8,9.1-7,9
			c-17.5-0.5-35-1.1-52.5-1.8c-4.1-0.2-8.4-4.4-9.1-9.5c-1.7-11.9-2.7-23.9-3.7-35.9C244.7,382.2,248,378.1,252.4,378.2"/>
		<path class="st36" d="M148.3,438.1c8.9,0.9,18,1.8,27,2.7c2.1,0.2,4.9,2.6,6.5,5.1c4,6.3,9.1,12.9,17.2,18.6
			c4.5,3.2,8.7,4.5,6.9,4.2c-7.5-1-15-2-22.4-3.1c-1.8-0.3-9.8-1.9-15.3-5.1c-9.6-5.5-15.9-12-20.8-18.2
			C145.6,440,146.1,437.9,148.3,438.1"/>
	</g>
	<path class="st9" d="M282.8,443.9c10.4,0.4,20.9,0.6,31.3,0.9c2.5,0.1,4.6,2.6,4.9,5.8c0.7,7.4,1.3,14.9,3.1,22.2
		c0.8,3.2,0.8,5.5-1.2,5.4c-8.6-0.3-17.1-0.6-25.6-1.1c-2-0.1-6.8-2.4-8.6-5.8c-3.8-7.1-5.7-14.7-7.4-22
		C278.6,446.2,280.3,443.8,282.8,443.9"/>
	<path class="st3" d="M332.9,434.7c13.9,0.2,27.9,0.3,42,0.2c3.3,0,5.9,3.3,5.6,7.3c-0.7,9.8-1.8,19.5-3.6,29.2
		c-0.8,4.1-4,7.3-6.6,7.4c-11.2,0.1-22.4,0-33.6-0.2c-2.7,0-6.4-3.3-7.1-7.4c-1.4-9.7-1.8-19.5-2.4-29.2
		C327,438,329.6,434.7,332.9,434.7"/>
	<path class="st9" d="M458.9,432.8c14-0.7,28-1.5,42-2.4c3.3-0.2,5.3,2.9,3.8,6.8c-3.7,9.5-8.8,19.5-17.7,28.3
		c-4.7,4.6-13.3,7.4-15.9,7.7c-11.2,1.1-22.4,2.1-33.6,3c-2.6,0.2-0.6-2.6,2.3-7c6-9.3,9.3-19.2,11.6-28.8
		C452.5,436.3,455.7,433,458.9,432.8"/>
	<path class="st3" d="M520.5,428.9c10.5-0.7,21-1.7,31.5-2.6c2.5-0.2,3.8,2,2.4,4.8c-3.4,7-7.7,14-13.6,20.7c-2.7,3-7.5,5.5-9.8,5.7
		c-9.4,1.1-18.8,2.3-28.2,3.2c-2.3,0.2-1.7-1.9,0.5-4.9c4.9-7,8.3-14.1,11-21.2C515.4,431.7,518,429.1,520.5,428.9"/>
	<path class="st4" d="M585.1,423c13.9-1.5,27.9-3.2,42-5c3.3-0.4,4.6,2.4,2,5.9c-6.8,8.9-16.4,18.3-31.6,26.1
		c-9.1,4.6-22.6,7.1-25.3,7.6c-11.2,2.2-22.4,4.4-33.6,6.3c-2.7,0.5,4.4-1.4,11.6-6.1c12.5-8.2,20.2-18,25.7-27.2
		C577.9,426.9,581.8,423.3,585.1,423"/>
	<g>
		<defs>
			<path id="SVGID_19_" d="M458.9,222.9c0.1,9.7,0.3,19.3,0.4,28.9c0,4,3,7.3,6.6,7.3c15,0,30,0,45.1,0c3.6,0,6.5-3.2,6.4-7.1
				c-0.1-9.4-0.3-18.9-0.5-28.3c-0.1-4-3-7.3-6.6-7.3c-15-0.3-30-0.5-44.9-0.7h-0.1C461.7,215.7,458.8,218.9,458.9,222.9"/>
		</defs>
		<clipPath id="SVGID_20_">
			<use xlink:href="#SVGID_19_"  style="overflow:visible;"/>
		</clipPath>
		<rect x="323.3" y="80.1" class="st37" width="329.7" height="314.7"/>
		<path class="st38" d="M504.8,184.1c19.8,0.6,39.5,1.3,59.3,2.1c4.7,0.2,8.9,4.5,9.3,9.7c0.8,12.3,1.3,24.5,1.7,36.8
			c0.2,5.1-3.7,9.3-8.5,9.2c-20-0.3-40-0.5-60-0.6c-4.8,0-8.7-4.4-8.8-9.7c-0.3-12.7-0.6-25.3-1.1-38
			C496.4,188.3,500,183.9,504.8,184.1"/>
	</g>
	<g>
		<defs>
			<path id="SVGID_21_" d="M129.5,140.9c-12.9,1-25.8,2-38.7,3.1c-3.1,0.2-6.2,3.2-6.7,6.4c-1.3,7.9-2.5,15.8-3.5,23.6
				c-0.4,3.3,1.9,5.8,5,5.6c13.1-0.7,26.2-1.5,39.4-2.1c3.1-0.2,6-3.1,6.3-6.5c0.8-8.1,1.8-16.2,2.9-24.3c0.5-3.3-1.4-5.8-4.3-5.8
				C129.8,140.9,129.6,140.9,129.5,140.9"/>
		</defs>
		<clipPath id="SVGID_22_">
			<use xlink:href="#SVGID_21_"  style="overflow:visible;"/>
		</clipPath>
		<rect x="-55.1" y="5.2" class="st39" width="324.9" height="310.1"/>
		<path class="st40" d="M65.2,170.3c14.7-1,29.4-2,44.2-2.9c3.5-0.2,6,2.7,5.6,6.5c-0.9,9-1.7,18.1-2.3,27.2c-0.3,3.8-3.3,7-6.9,7.2
			c-14.9,0.5-29.9,1.1-44.8,1.7c-3.6,0.2-6.2-2.7-5.9-6.3c0.8-8.8,1.7-17.5,2.9-26.2C58.4,173.7,61.7,170.6,65.2,170.3"/>
	</g>
</g>
<text transform="matrix(1 0 0 1 749.0918 376.0974)" class="st41 st42 st43 st44">engagis</text>
<g>
	<path d="M761.7,284.3c0-54.4,41.8-96.9,96.2-96.9c54.8,0,95.1,39.6,95.1,94.3v15.5H799.8c5.2,28.5,27.4,47.4,59.6,47.4
		c25.2,0,44.4-13.3,54-33.3l32.6,18.1c-16.3,30.3-45.5,50.3-86.6,50.3C800.9,379.8,761.7,338,761.7,284.3z M801.6,263.6h111
		c-5.9-26.6-26.3-41.4-54.8-41.4C830.5,222.2,809,239.2,801.6,263.6z"/>
	<path d="M992.2,191.1h39.2v24c12.6-17,32.6-27.8,57-27.8c46.6,0,75.1,30.3,75.1,80.7v108h-40V271.4c0-30.3-15.2-49.6-44.8-49.6
		c-26.6,0-47,20-47,52.5v101.7h-39.6V191.1z"/>
	<path d="M1202,283.6c0-59.2,44-96.2,92.5-96.2c24.4,0,47.4,11.1,61.4,28.9v-25.2h39.6v180.6c0,54.4-34,94.3-93.2,94.3
		c-46.3,0-77.7-22.2-91.8-52.2l36.6-17.4c9.2,20.3,27,33.3,55.1,33.3c33.7,0,54-24.8,54-56.6v-23.3c-14.1,18.5-37.7,30-62.2,30
		C1247.1,379.8,1202,342.4,1202,283.6z M1358.1,283.2c0-32.9-24.8-59.9-58.5-59.9c-32.9,0-58.5,26.3-58.5,59.9s25.5,60.3,58.5,60.3
		C1333.3,343.5,1358.1,316.5,1358.1,283.2z"/>
	<path d="M1434.7,283.6c0-59.2,44-96.2,92.5-96.2c24.4,0,47.7,10.7,61.4,27.8v-24h39.6v185h-39.6v-25.5
		c-14.1,18.1-37.4,29.2-61.8,29.2C1479.8,379.8,1434.7,342.4,1434.7,283.6z M1590.8,283.2c0-32.9-24.8-59.9-58.5-59.9
		c-32.9,0-58.5,26.3-58.5,59.9s25.5,60.3,58.5,60.3C1566,343.5,1590.8,316.5,1590.8,283.2z"/>
	<path d="M1667.1,283.6c0-59.2,44-96.2,92.5-96.2c24.4,0,47.4,11.1,61.4,28.9v-25.2h39.6v180.6c0,54.4-34,94.3-93.2,94.3
		c-46.3,0-77.7-22.2-91.8-52.2l36.6-17.4c9.2,20.3,27,33.3,55.1,33.3c33.7,0,54-24.8,54-56.6v-23.3c-14.1,18.5-37.7,30-62.2,30
		C1712.2,379.8,1667.1,342.4,1667.1,283.6z M1823.2,283.2c0-32.9-24.8-59.9-58.5-59.9c-32.9,0-58.5,26.3-58.5,59.9
		s25.5,60.3,58.5,60.3C1798.4,343.5,1823.2,316.5,1823.2,283.2z"/>
	<path d="M1905,113.8h40v51.8h-40V113.8z M1905,191.1h40v185h-40V191.1z"/>
	<path d="M1977.1,336.9l35.5-18.5c10,17,26.3,27,47.4,27c22.2,0,33.7-11.5,33.7-24.4c0-14.8-21.5-18.1-44.8-22.9
		c-31.5-6.7-64-17-64-55.1c0-29.2,27.8-56.2,71.4-55.9c34.4,0,59.9,13.7,74.4,35.9l-32.9,18.1c-8.5-12.9-22.9-21.1-41.4-21.1
		c-21.1,0-31.8,10.4-31.8,22.2c0,13.3,17,17,43.7,22.9c30.3,6.7,64.7,16.7,64.7,55.1c0,25.5-22.2,59.9-74.7,59.6
		C2019.7,379.8,1992.6,364.3,1977.1,336.9z"/>
</g>
<text transform="matrix(1 0 0 1 749.0918 -943.9026)" class="st41 st42 st43 st44">engagis</text>
</svg>
